<?xml version="1.0" encoding="UTF-8" ?>
<!DOCTYPE svg PUBLIC "-//W3C//DTD SVG 1.1//EN" "http://www.w3.org/Graphics/SVG/1.1/DTD/svg11.dtd">
<svg width="100pt" height="104pt" viewBox="0 0 100 104" version="1.1" xmlns="http://www.w3.org/2000/svg">
<g id="#000000ff">
<path fill="#000000" opacity="1.00" d=" M 15.94 0.09 C 19.41 3.42 22.58 7.04 25.96 10.45 C 41.85 1.79 62.45 2.31 77.49 12.56 C 90.22 20.90 98.69 35.15 100.00 50.32 L 100.00 56.54 C 99.21 68.30 94.52 79.82 86.28 88.32 C 77.62 97.52 65.40 103.45 52.68 103.73 L 55.27 104.00 L 48.08 104.00 C 34.89 103.41 22.09 97.52 13.24 87.71 C 5.47 79.50 1.03 68.55 0.01 57.35 L 0.00 60.12 L 0.00 54.38 C 4.41 54.06 8.83 54.28 13.24 54.20 C 13.43 68.66 22.61 82.55 36.11 87.90 C 49.17 93.36 65.31 90.45 75.41 80.46 C 87.08 69.55 90.18 50.68 82.22 36.75 C 73.81 20.43 52.24 13.06 35.56 20.68 C 39.10 24.88 43.10 28.64 46.72 32.77 C 35.57 32.24 24.40 31.92 13.24 31.60 C 13.95 21.08 15.21 10.60 15.94 0.09 Z" />
</g>
</svg>
