<?xml version="1.0" encoding="UTF-8" ?>
<!DOCTYPE svg PUBLIC "-//W3C//DTD SVG 1.1//EN" "http://www.w3.org/Graphics/SVG/1.1/DTD/svg11.dtd">
<svg width="100pt" height="58pt" viewBox="0 0 100 58" version="1.1" xmlns="http://www.w3.org/2000/svg">
<g id="#020202ff">
<path fill="#020202" opacity="1.00" d=" M 44.30 0.00 L 55.15 0.00 C 66.48 1.03 78.17 2.30 88.45 7.55 C 93.78 10.24 98.83 14.58 100.00 20.73 L 100.00 24.91 C 99.11 29.61 95.94 33.48 92.03 36.05 C 86.31 39.95 79.56 41.89 72.90 43.46 C 72.89 39.22 72.89 34.98 72.90 30.74 C 78.30 29.01 84.14 27.39 88.02 22.95 C 86.24 20.99 84.18 19.27 81.71 18.24 C 74.24 14.90 66.06 13.47 57.94 12.79 C 46.87 12.15 35.59 12.69 24.91 15.87 C 20.24 17.27 15.40 19.07 12.19 22.94 C 15.33 26.60 19.97 28.31 24.42 29.79 C 30.03 31.49 35.84 32.40 41.67 32.90 C 41.72 28.77 41.71 24.63 41.67 20.50 C 49.69 26.94 57.95 33.07 66.01 39.45 C 57.90 45.61 50.07 52.15 41.72 57.99 C 41.67 53.80 41.72 49.61 41.69 45.42 C 31.71 44.62 21.59 42.91 12.48 38.58 C 6.56 35.76 0.85 30.92 0.00 24.01 L 0.00 22.10 C 0.56 15.96 5.13 11.24 10.26 8.36 C 20.62 2.54 32.69 1.18 44.30 0.00 Z" />
</g>
</svg>
