<?xml version="1.0" encoding="UTF-8" ?>
<!DOCTYPE svg PUBLIC "-//W3C//DTD SVG 1.1//EN" "http://www.w3.org/Graphics/SVG/1.1/DTD/svg11.dtd">
<svg width="100pt" height="86pt" viewBox="0 0 100 86" version="1.1" xmlns="http://www.w3.org/2000/svg">
<g id="#000000ff">
<path fill="#000000" opacity="1.00" d=" M 50.31 0.00 L 50.66 0.00 C 52.89 3.37 56.18 5.81 58.85 8.81 C 56.95 8.81 55.05 8.79 53.15 8.78 C 53.20 14.43 53.14 20.08 53.21 25.73 C 61.18 28.71 69.12 31.78 77.10 34.75 C 78.98 35.54 81.87 36.30 81.36 38.96 C 81.47 49.25 81.38 59.54 81.37 69.83 C 85.19 71.32 89.05 72.72 92.93 74.06 C 93.61 72.23 94.27 70.39 94.97 68.57 C 96.49 72.26 98.17 75.88 100.00 79.43 L 100.00 79.53 C 96.29 81.35 92.53 83.06 88.76 84.72 C 89.51 82.90 90.27 81.09 91.02 79.27 C 87.06 77.79 83.09 76.34 79.11 74.92 C 70.40 78.29 61.67 81.63 52.94 84.94 C 51.40 85.65 49.68 85.76 48.13 85.03 C 39.12 81.70 30.21 78.09 21.19 74.78 C 17.15 76.41 13.05 77.92 8.96 79.44 C 9.74 81.25 10.48 83.07 11.24 84.89 C 7.44 83.27 3.73 81.47 0.00 79.70 L 0.00 79.29 C 0.11 79.33 0.34 79.41 0.45 79.45 C 1.93 75.87 3.43 72.29 5.04 68.77 C 5.74 70.61 6.41 72.46 7.09 74.31 C 11.19 72.76 15.28 71.19 19.40 69.70 C 19.58 59.16 19.28 48.61 19.53 38.08 C 19.45 36.40 21.33 35.90 22.53 35.30 C 30.90 32.05 39.33 28.94 47.70 25.67 C 47.63 20.02 47.75 14.36 47.57 8.70 C 45.69 8.75 43.81 8.79 41.94 8.82 C 44.67 5.82 47.93 3.31 50.31 0.00 M 30.17 38.34 C 36.29 40.82 42.48 43.11 48.64 45.49 C 50.36 46.42 52.19 45.46 53.84 44.87 C 59.46 42.65 65.16 40.62 70.74 38.30 C 64.10 35.84 57.53 33.16 50.87 30.78 C 43.82 32.65 37.08 35.91 30.17 38.34 M 24.90 42.39 C 24.94 51.66 24.91 60.92 24.91 70.19 C 32.48 73.17 40.11 75.98 47.67 78.96 C 47.65 69.68 47.64 60.39 47.67 51.11 C 40.10 48.17 32.50 45.26 24.90 42.39 M 53.22 51.03 C 53.18 60.27 53.37 69.53 53.11 78.77 C 60.78 76.13 68.32 73.10 75.89 70.19 C 75.76 60.93 75.73 51.66 75.91 42.40 C 68.31 45.17 60.80 48.19 53.22 51.03 Z" />
</g>
</svg>
