<?xml version="1.0" encoding="UTF-8" ?>
<!DOCTYPE svg PUBLIC "-//W3C//DTD SVG 1.1//EN" "http://www.w3.org/Graphics/SVG/1.1/DTD/svg11.dtd">
<svg width="100pt" height="65pt" viewBox="0 0 100 65" version="1.1" xmlns="http://www.w3.org/2000/svg">
<g id="#000000ff">
<path fill="#000000" opacity="1.00" d=" M 9.81 0.00 L 89.77 0.00 C 94.89 0.03 99.26 3.80 100.00 8.83 L 100.00 56.21 C 99.43 60.66 96.04 64.04 91.74 65.00 L 64.21 65.00 C 63.06 64.13 61.60 63.45 61.06 62.01 C 59.15 57.72 58.37 53.01 56.32 48.78 C 54.50 44.88 48.87 43.83 45.66 46.63 C 40.62 51.65 42.31 60.65 36.39 65.00 L 8.86 65.00 C 3.26 64.27 -0.16 59.01 0.00 53.65 L 0.00 12.09 C -0.50 6.09 3.65 0.39 9.81 0.00 M 18.47 20.81 C 13.49 22.58 9.92 27.73 10.19 33.03 C 10.30 39.63 16.39 45.50 23.06 45.00 C 30.56 45.15 36.70 37.23 34.85 29.99 C 33.60 22.80 25.26 18.17 18.47 20.81 M 74.41 20.49 C 69.34 21.85 65.24 26.64 65.18 31.98 C 64.56 38.98 71.00 45.58 78.03 45.00 C 85.55 45.11 91.67 37.13 89.78 29.90 C 88.43 23.18 81.04 18.58 74.41 20.49 Z" />
</g>
</svg>
